#!OML:ASF H:\ManfredETheater\Project 1\Capture day 1\Session 1\subject.ASF
:FULLY-SPECIFIED
:DEGREES
247
root -11.039 17.8255 -33.0355 -177.863 -27.3232 182.648
lowerback 5.75786 -0.35383 0.120474
upperback -2.37003 -0.386559 2.40535
thorax -5.68189 -0.16991 2.47994
lowerneck -18.6738 -0.630715 -2.08574
upperneck 23.553 -0.0353477 -2.70557
head 10.6768 -0.745554 -0.665418
rclavicle 4.97459e-014 1.98785e-015
rhumerus -43.4769 -21.5204 -69.4935
rradius 28.9416
rwrist 5.33145
rhand -23.8895 -4.96093
rfingers 7.12502
rthumb 2.58405 -34.925
lclavicle 4.97459e-014 1.98785e-015
lhumerus -42.3267 7.92987 85.5594
lradius 39.3292
lwrist -7.58836
lhand -16.3525 -0.230601
lfingers 7.12502
lthumb 9.86011 29.5185
rfemur -16.8654 0.451775 23.6242
rtibia 35.7529
rfoot -22.1855 -11.6235
rtoes -22.7776
lfemur -23.719 -10.1153 -18.1077
ltibia 46.3065
lfoot -23.6884 -1.64355
ltoes 5.88133
248
root -11.0656 17.8229 -33.084 -177.683 -27.1409 182.659
lowerback 5.73275 -0.299287 0.137025
upperback -2.3562 -0.313313 2.38829
thorax -5.65619 -0.134682 2.4445
lowerneck -18.6689 -0.606583 -2.05161
upperneck 23.4711 -0.00250143 -2.72639
head 10.6458 -0.726379 -0.672428
rclavicle -4.0608e-014 -3.97569e-016
rhumerus -42.7834 -20.6429 -70.855
rradius 29.314
rwrist 5.0243
rhand -23.8561 -4.84389
rfingers 7.12502
rthumb 2.61636 -34.8076
lclavicle -4.0608e-014 -3.97569e-016
lhumerus -42.3525 7.89714 85.6161
lradius 39.0565
lwrist -7.6832
lhand -16.214 -0.334211
lfingers 7.12502
lthumb 9.99368 29.4085
rfemur -16.864 0.454981 23.6358
rtibia 35.7607
rfoot -22.4033 -11.6657
rtoes -23.3519
lfemur -23.687 -10.0737 -18.112
ltibia 46.3463
lfoot -23.9547 -1.45553
ltoes 5.85213
249
root -11.0931 17.8203 -33.1329 -177.492 -26.9636 182.646
lowerback 5.71206 -0.244537 0.141749
upperback -2.34605 -0.240704 2.36336
thorax -5.63675 -0.0992821 2.40773
lowerneck -18.6629 -0.589545 -2.03253
upperneck 23.3892 0.0212468 -2.73336
head 10.6147 -0.710949 -0.673262
rclavicle -6.75122e-014 5.1684e-015
rhumerus -42.1086 -19.7166 -72.1969
rradius 29.7106
rwrist 4.71496
rhand -23.8205 -4.72439
rfingers 7.12502
rthumb 2.65071 -34.6877
lclavicle -6.75122e-014 5.1684e-015
lhumerus -42.3716 7.87133 85.6662
lradius 38.7797
lwrist -7.80886
lhand -16.0849 -0.460854
lfingers 7.12502
lthumb 10.1182 29.2759
rfemur -16.8635 0.456524 23.6201
rtibia 35.774
rfoot -22.6226 -11.7082
rtoes -23.9056
lfemur -23.6503 -10.0274 -18.144
ltibia 46.3769
lfoot -24.2086 -1.28454
ltoes 5.85847
250
root -11.121 17.8178 -33.1819 -177.292 -26.7825 182.621
lowerback 5.69725 -0.18649 0.13652
upperback -2.33714 -0.164354 2.33576
thorax -5.62202 -0.0616117 2.37353
lowerneck -18.6597 -0.580253 -2.02582
upperneck 23.3042 0.035973 -2.73184
head 10.5829 -0.699497 -0.670254
rclavicle -2.59041e-014 1.90833e-014
rhumerus -41.4484 -18.7537 -73.5098
rradius 30.1278
rwrist 4.42
rhand -23.7811 -4.5949
rfingers 7.12502
rthumb 2.68873 -34.5577
lclavicle -2.59041e-014 1.90833e-014
lhumerus -42.3812 7.85103 85.7145
lradius 38.5072
lwrist -7.96265
lhand -15.9557 -0.562044
lfingers 7.12502
lthumb 10.2429 29.1686
rfemur -16.8689 0.480808 23.5891
rtibia 35.7935
rfoot -22.8402 -11.7569
rtoes -24.4207
lfemur -23.612 -9.97495 -18.1904
ltibia 46.3974
lfoot -24.4453 -1.12304
ltoes 5.89303
251
root -11.1495 17.8153 -33.2309 -177.082 -26.6004 182.585
lowerback 5.68745 -0.126785 0.126361
upperback -2.33271 -0.0860914 2.30549
thorax -5.61485 -0.0227697 2.33926
lowerneck -18.6554 -0.576608 -2.02967
upperneck 23.2166 0.0436607 -2.72133
head 10.55 -0.690964 -0.663243
rclavicle -2.2736e-014 1.78906e-014
rhumerus -40.8096 -17.7459 -74.7933
rradius 30.5751
rwrist 4.13216
rhand -23.735 -4.4602
rfingers 7.12502
rthumb 2.73324 -34.4224
lclavicle -2.2736e-014 1.78906e-014
lhumerus -42.3854 7.83579 85.7614
lradius 38.2426
lwrist -8.14152
lhand -15.8285 -0.652634
lfingers 7.12502
lthumb 10.3656 29.0719
rfemur -16.8854 0.518303 23.5427
rtibia 35.8207
rfoot -23.0543 -11.8009
rtoes -24.8953
lfemur -23.5764 -9.92123 -18.2505
ltibia 46.4077
lfoot -24.6649 -0.969251
ltoes 5.96354
252
root -11.1789 17.8127 -33.2803 -176.858 -26.4235 182.538
lowerback 5.6735 -0.0672677 0.114764
upperback -2.33159 -0.00830038 2.27285
thorax -5.60872 0.0158728 2.3034
lowerneck -18.6479 -0.578373 -2.03839
upperneck 23.1219 0.0446882 -2.70871
head 10.514 -0.685377 -0.655518
rclavicle -1.0548e-014 2.38542e-014
rhumerus -40.1997 -16.7047 -76.0384
rradius 31.0624
rwrist 3.85565
rhand -23.675 -4.31725
rfingers 7.12502
rthumb 2.7912 -34.2787
lclavicle -1.0548e-014 2.38542e-014
lhumerus -42.3932 7.82283 85.8096
lradius 38.0098
lwrist -8.33595
lhand -15.6932 -0.71358
lfingers 7.12502
lthumb 10.4961 29.0044
rfemur -16.9122 0.55732 23.4805
rtibia 35.8521
rfoot -23.2632 -11.8357
rtoes -25.3397
lfemur -23.5452 -9.87401 -18.3241
ltibia 46.411
lfoot -24.8742 -0.819637
ltoes 6.06092
253
root -11.2093 17.81 -33.3303 -176.617 -26.2531 182.469
lowerback 5.6549 -0.00879628 0.0876072
upperback -2.33354 0.0668214 2.23691
thorax -5.603 0.0537747 2.27318
lowerneck -18.6439 -0.583994 -2.05409
upperneck 23.0264 0.0419525 -2.69335
head 10.4784 -0.681739 -0.646215
rclavicle 6.07287e-014 3.18055e-015
rhumerus -39.6285 -15.6202 -77.2467
rradius 31.6069
rwrist 3.57625
rhand -23.6041 -4.16444
rfingers 7.12502
rthumb 2.85974 -34.125
lclavicle 6.07287e-014 3.18055e-015
lhumerus -42.3948 7.81048 85.863
lradius 37.7907
lwrist -8.53812
lhand -15.569 -0.783082
lfingers 7.12502
lthumb 10.6159 28.9288
rfemur -16.9479 0.599171 23.3926
rtibia 35.888
rfoot -23.4643 -11.8643
rtoes -25.7502
lfemur -23.5166 -9.83421 -18.422
ltibia 46.408
lfoot -25.0794 -0.675752
ltoes 6.18599
254
root -11.2406 17.8073 -33.3806 -176.372 -26.0841 182.422
lowerback 5.6336 0.0510739 0.0843537
upperback -2.34428 0.145638 2.20752
thorax -5.60504 0.0926118 2.23608
lowerneck -18.6428 -0.59047 -2.07478
upperneck 22.9342 0.039376 -2.67742
head 10.4446 -0.678555 -0.635947
rclavicle -1.81143e-014 7.15625e-015
rhumerus -39.1022 -14.4803 -78.4199
rradius 32.2102
rwrist 3.26927
rhand -23.53 -3.9989
rfingers 7.12502
rthumb 2.93131 -33.9585
lclavicle -1.81143e-014 7.15625e-015
lhumerus -42.4059 7.79049 85.924
lradius 37.61
lwrist -8.72558
lhand -15.4647 -0.893311
lfingers 7.12502
lthumb 10.7166 28.8134
rfemur -16.9993 0.65726 23.3221
rtibia 35.9241
rfoot -23.6498 -11.8963
rtoes -26.1345
lfemur -23.5011 -9.79878 -18.499
ltibia 46.4011
lfoot -25.2827 -0.535676
ltoes 6.32714
255
root -11.273 17.8043 -33.4314 -176.114 -25.9275 182.37
lowerback 5.60503 0.109279 0.0865025
upperback -2.35828 0.222507 2.17899
thorax -5.60618 0.130247 2.19706
lowerneck -18.6511 -0.597835 -2.10307
upperneck 22.8454 0.0379526 -2.65993
head 10.4139 -0.675412 -0.623812
rclavicle -1.38031e-014 1.70955e-014
rhumerus -38.6288 -13.2992 -79.5501
rradius 32.8894
rwrist 2.93855
rhand -23.4639 -3.81333
rfingers 7.12502
rthumb 2.9951 -33.772
lclavicle -1.38031e-014 1.70955e-014
lhumerus -42.4191 7.75729 85.999
lradius 37.4668
lwrist -8.89506
lhand -15.3826 -1.04571
lfingers 7.12502
lthumb 10.7957 28.6569
rfemur -17.0592 0.709475 23.2431
rtibia 35.9602
rfoot -23.8232 -11.9299
rtoes -26.5145
lfemur -23.4917 -9.77323 -18.583
ltibia 46.3905
lfoot -25.4886 -0.401829
ltoes 6.47746
256
root -11.3078 17.8013 -33.4841 -175.848 -25.7968 182.314
lowerback 5.55167 0.161687 0.102276
upperback -2.37159 0.292144 2.14936
thorax -5.59197 0.163645 2.14992
lowerneck -18.664 -0.606437 -2.13037
upperneck 22.757 0.0370272 -2.65164
head 10.3843 -0.673129 -0.615115
rclavicle 5.29016e-014 3.37934e-014
rhumerus -38.2261 -12.0867 -80.6319
rradius 33.6684
rwrist 2.56336
rhand -23.4071 -3.59814
rfingers 7.12502
rthumb 3.04999 -33.5561
lclavicle 5.29016e-014 3.37934e-014
lhumerus -42.4354 7.70147 86.0913
lradius 37.3629
lwrist -9.03436
lhand -15.3295 -1.25191
lfingers 7.12502
lthumb 10.8469 28.448
rfemur -17.1116 0.721733 23.1518
rtibia 35.9924
rfoot -23.9965 -11.9499
rtoes -26.8954
lfemur -23.4769 -9.76238 -18.6796
ltibia 46.3783
lfoot -25.7087 -0.278856
ltoes 6.63117
257
root -11.3432 17.7979 -33.5373 -175.584 -25.6715 182.267
lowerback 5.5097 0.216489 0.127133
upperback -2.39126 0.365906 2.12449
thorax -5.59096 0.198812 2.1024
lowerneck -18.6772 -0.615867 -2.15212
upperneck 22.6682 0.0360499 -2.65483
head 10.3547 -0.671844 -0.611463
rclavicle 1.12562e-014 3.18055e-015
rhumerus -37.8904 -10.8378 -81.6679
rradius 34.5287
rwrist 2.14082
rhand -23.3533 -3.3848
rfingers 7.12502
rthumb 3.10192 -33.342
lclavicle 1.12562e-014 3.18055e-015
lhumerus -42.4678 7.61726 86.201
lradius 37.3158
lwrist -9.13665
lhand -15.2944 -1.48452
lfingers 7.12502
lthumb 10.8808 28.2136
rfemur -17.1656 0.758821 23.0695
rtibia 36.023
rfoot -24.157 -11.998
rtoes -27.2695
lfemur -23.4644 -9.74697 -18.7671
ltibia 46.3645
lfoot -25.9358 -0.168807
ltoes 6.77532
258
root -11.3791 17.7943 -33.5908 -175.322 -25.5507 182.239
lowerback 5.47658 0.273232 0.166742
upperback -2.41382 0.4436 2.10759
thorax -5.59801 0.235417 2.0546
lowerneck -18.6964 -0.625422 -2.16684
upperneck 22.5765 0.0361488 -2.66965
head 10.3252 -0.670762 -0.612973
rclavicle 5.89397e-014 -1.78906e-014
rhumerus -37.6149 -9.56043 -82.6571
rradius 35.4683
rwrist 1.67206
rhand -23.3199 -3.16673
rfingers 7.12502
rthumb 3.13413 -33.1234
lclavicle 5.89397e-014 -1.78906e-014
lhumerus -42.5014 7.503 86.3311
lradius 37.3132
lwrist -9.19119
lhand -15.2725 -1.71552
lfingers 7.12502
lthumb 10.9019 27.9815
rfemur -17.2221 0.826703 23.0063
rtibia 36.0505
rfoot -24.3046 -12.0788
rtoes -27.6296
lfemur -23.4582 -9.72299 -18.8346
ltibia 46.3503
lfoot -26.1687 -0.0729592
ltoes 6.90068
259
root -11.416 17.7904 -33.6452 -175.057 -25.4447 182.208
lowerback 5.44399 0.328167 0.20772
upperback -2.43796 0.518977 2.09168
thorax -5.60679 0.27081 2.00737
lowerneck -18.7212 -0.635687 -2.17958
upperneck 22.4841 0.0358849 -2.68789
head 10.2967 -0.670031 -0.616099
rclavicle -1.76173e-014 1.55052e-014
rhumerus -37.4021 -8.2765 -83.5929
rradius 36.4856
rwrist 1.16346
rhand -23.2954 -2.96276
rfingers 7.12502
rthumb 3.15781 -32.9191
lclavicle -1.76173e-014 1.55052e-014
lhumerus -42.5456 7.35845 86.4791
lradius 37.368
lwrist -9.19575
lhand -15.2601 -1.94108
lfingers 7.12502
lthumb 10.9139 27.7553
rfemur -17.275 0.896841 22.9386
rtibia 36.0764
rfoot -24.4503 -12.1789
rtoes -27.9814
lfemur -23.4515 -9.69425 -18.9066
ltibia 46.336
lfoot -26.4103 0.00453992
ltoes 7.00435
